<svg width="266" height="74" viewBox="0 0 266 74" fill="none" xmlns="http://www.w3.org/2000/svg">
<path d="M94.4805 36H98.2422L92.3594 19.0898H88.1992L82.3281 36H85.9609L87.25 31.8984H93.1914L94.4805 36ZM90.1797 22.3242H90.2617L92.4297 29.25H88.0117L90.1797 22.3242ZM103.516 36V19.0898H99.9766V36H103.516ZM111.086 19.0898V36H117.543C122.617 36 125.605 32.8477 125.605 27.4805C125.605 22.1133 122.617 19.0898 117.543 19.0898H111.086ZM114.625 22.0078H117.121C120.238 22.0078 121.996 23.9531 121.996 27.4922C121.996 31.1484 120.285 33.0703 117.121 33.0703H114.625V22.0078ZM133.234 25.6992C134.758 25.6992 135.801 26.8008 135.871 28.4062H130.539C130.656 26.8359 131.734 25.6992 133.234 25.6992ZM135.918 32.1562C135.602 33.1172 134.641 33.7383 133.387 33.7383C131.641 33.7383 130.504 32.5078 130.504 30.7148V30.5039H139.164V29.4609C139.164 25.6406 136.855 23.168 133.199 23.168C129.484 23.168 127.141 25.7695 127.141 29.7773C127.141 33.7969 129.461 36.2695 133.328 36.2695C136.434 36.2695 138.684 34.6172 139.059 32.1562H135.918ZM140.934 36H144.355V28.9805C144.355 27.2109 145.34 26.1797 147.027 26.1797C147.52 26.1797 147.988 26.2617 148.27 26.3789V23.3672C148.035 23.2969 147.695 23.2383 147.297 23.2383C145.82 23.2383 144.754 24.1055 144.309 25.6992H144.238V23.4375H140.934V36ZM149.676 36H153.098V28.418C153.098 27.0117 153.977 26.0273 155.277 26.0273C156.543 26.0273 157.305 26.8242 157.305 28.1719V36H160.598V28.3711C160.598 26.9766 161.453 26.0273 162.754 26.0273C164.078 26.0273 164.805 26.8242 164.805 28.2773V36H168.227V27.4219C168.227 24.8906 166.574 23.2031 164.113 23.2031C162.273 23.2031 160.773 24.1992 160.211 25.7812H160.141C159.719 24.1406 158.453 23.2031 156.637 23.2031C154.926 23.2031 153.578 24.1992 153.051 25.7109H152.98V23.4375H149.676V36ZM175.246 33.7266C174.086 33.7266 173.312 33.1406 173.312 32.2031C173.312 31.3125 174.039 30.7383 175.316 30.6445L177.965 30.4805V31.3945C177.965 32.7539 176.734 33.7266 175.246 33.7266ZM174.121 36.1992C175.691 36.1992 177.25 35.4141 177.953 34.0781H178.023V36H181.328V27.3633C181.328 24.832 179.23 23.168 176.008 23.168C172.68 23.168 170.605 24.8438 170.477 27.2812H173.605C173.77 26.3555 174.578 25.7227 175.855 25.7227C177.145 25.7227 177.965 26.4023 177.965 27.5742V28.4062L174.801 28.5938C171.672 28.7812 169.914 30.1055 169.914 32.3906C169.914 34.6523 171.73 36.1992 174.121 36.1992ZM184.457 20.543V23.4375H182.688V26.0156H184.457V32.6133C184.457 35.0625 185.605 36.0469 188.559 36.0469C189.25 36.0469 189.836 35.9883 190.188 35.9062V33.3867C189.977 33.4219 189.66 33.4453 189.355 33.4453C188.348 33.4453 187.879 32.9883 187.879 32.0273V26.0156H190.199V23.4375H187.879V20.543H184.457ZM197.652 36.2695C201.449 36.2695 203.875 33.8438 203.875 29.707C203.875 25.6289 201.414 23.168 197.652 23.168C193.891 23.168 191.43 25.6406 191.43 29.707C191.43 33.832 193.855 36.2695 197.652 36.2695ZM197.652 33.6562C195.965 33.6562 194.898 32.2383 194.898 29.7188C194.898 27.2227 195.988 25.7812 197.652 25.7812C199.316 25.7812 200.395 27.2227 200.395 29.7188C200.395 32.2383 199.328 33.6562 197.652 33.6562ZM205.727 36H209.148V19.0898H205.727V36ZM217.223 36.2695C221.02 36.2695 223.445 33.8438 223.445 29.707C223.445 25.6289 220.984 23.168 217.223 23.168C213.461 23.168 211 25.6406 211 29.707C211 33.832 213.426 36.2695 217.223 36.2695ZM217.223 33.6562C215.535 33.6562 214.469 32.2383 214.469 29.7188C214.469 27.2227 215.559 25.7812 217.223 25.7812C218.887 25.7812 219.965 27.2227 219.965 29.7188C219.965 32.2383 218.898 33.6562 217.223 33.6562ZM231.016 33.3281C229.316 33.3281 228.262 31.9922 228.262 29.6953C228.262 27.4102 229.328 25.9805 231.016 25.9805C232.727 25.9805 233.816 27.4336 233.816 29.6953C233.816 31.9688 232.727 33.3281 231.016 33.3281ZM230.957 40.7344C234.719 40.7344 237.227 38.8242 237.227 35.8242V23.4375H233.852V25.6289H233.793C233.137 24.1875 231.719 23.2383 229.914 23.2383C226.727 23.2383 224.758 25.6875 224.758 29.6719C224.758 33.5977 226.785 35.9648 229.855 35.9648C231.672 35.9648 233.148 35.0508 233.734 33.7148H233.805V35.918C233.805 37.3711 232.82 38.3555 231.051 38.3555C229.75 38.3555 228.766 37.7578 228.496 36.8906H225.145C225.414 39.1289 227.652 40.7344 230.957 40.7344ZM239.523 36H242.945V23.4375H239.523V36ZM241.234 22.0547C242.266 22.0547 243.062 21.2695 243.062 20.2852C243.062 19.2891 242.266 18.5156 241.234 18.5156C240.203 18.5156 239.406 19.2891 239.406 20.2852C239.406 21.2695 240.203 22.0547 241.234 22.0547ZM245.02 27.1289C245.02 28.9805 246.238 30.2227 248.617 30.7617L250.938 31.2773C252.062 31.5469 252.484 31.8984 252.484 32.5312C252.484 33.3516 251.699 33.8672 250.398 33.8672C249.039 33.8672 248.207 33.2578 248.043 32.2031H244.703C244.891 34.6523 246.953 36.2695 250.305 36.2695C253.621 36.2695 255.895 34.6406 255.895 32.168C255.895 30.293 254.875 29.2969 252.355 28.7344L249.953 28.2188C248.852 27.9609 248.312 27.5391 248.312 26.918C248.312 26.1094 249.086 25.5703 250.27 25.5703C251.535 25.5703 252.344 26.1914 252.414 27.1992H255.566C255.52 24.7617 253.469 23.168 250.316 23.168C247.094 23.168 245.02 24.7383 245.02 27.1289ZM258.52 20.543V23.4375H256.75V26.0156H258.52V32.6133C258.52 35.0625 259.668 36.0469 262.621 36.0469C263.312 36.0469 263.898 35.9883 264.25 35.9062V33.3867C264.039 33.4219 263.723 33.4453 263.418 33.4453C262.41 33.4453 261.941 32.9883 261.941 32.0273V26.0156H264.262V23.4375H261.941V20.543H258.52Z" fill="white"/>
<path d="M82.52 53.0923C82.6445 54.96 84.1973 56.1758 86.4385 56.1758C88.8701 56.1758 90.3936 54.9673 90.3936 53.0337C90.3936 51.5176 89.5073 50.6753 87.3174 50.126L86.2114 49.833C84.7759 49.4595 84.1899 48.9834 84.1899 48.1851C84.1899 47.1523 85.1421 46.4419 86.5117 46.4419C87.8887 46.4419 88.8042 47.1377 88.9214 48.2729H90.2397C90.1812 46.5005 88.6577 45.2554 86.5557 45.2554C84.3584 45.2554 82.8203 46.4858 82.8203 48.2437C82.8203 49.6792 83.6846 50.5361 85.6328 51.0342L86.9878 51.3857C88.4087 51.752 89.0312 52.3013 89.0312 53.1948C89.0312 54.2349 87.9912 54.9893 86.563 54.9893C85.0542 54.9893 83.9702 54.2349 83.8457 53.0923H82.52ZM93.0742 51.7666V45.4312H91.7998V56H93.0742V53.1289L93.7847 52.4551L96.6118 56H98.0913L94.6855 51.6714L97.9888 48.3828H96.4434L93.0742 51.7666ZM99.0801 56H100.354V48.3828H99.0801V56ZM99.7173 47.1011C100.157 47.1011 100.516 46.7422 100.516 46.3101C100.516 45.8706 100.157 45.519 99.7173 45.519C99.2852 45.519 98.9263 45.8706 98.9263 46.3101C98.9263 46.7422 99.2852 47.1011 99.7173 47.1011ZM102.076 56H103.35V51.5176C103.35 50.2285 104.134 49.3789 105.335 49.3789C106.507 49.3789 107.085 50.0527 107.085 51.2832V56H108.36V51.0562C108.36 49.3276 107.393 48.251 105.723 48.251C104.544 48.251 103.731 48.7783 103.306 49.5986H103.277V48.3828H102.076V56ZM112.754 53.0923C112.879 54.96 114.432 56.1758 116.673 56.1758C119.104 56.1758 120.628 54.9673 120.628 53.0337C120.628 51.5176 119.742 50.6753 117.552 50.126L116.446 49.833C115.01 49.4595 114.424 48.9834 114.424 48.1851C114.424 47.1523 115.376 46.4419 116.746 46.4419C118.123 46.4419 119.039 47.1377 119.156 48.2729H120.474C120.416 46.5005 118.892 45.2554 116.79 45.2554C114.593 45.2554 113.055 46.4858 113.055 48.2437C113.055 49.6792 113.919 50.5361 115.867 51.0342L117.222 51.3857C118.643 51.752 119.266 52.3013 119.266 53.1948C119.266 54.2349 118.226 54.9893 116.797 54.9893C115.289 54.9893 114.205 54.2349 114.08 53.0923H112.754ZM128.296 50.8804C128.135 49.5107 127 48.251 125.096 48.251C122.994 48.251 121.595 49.7891 121.595 52.1914C121.595 54.645 123.001 56.1318 125.11 56.1318C126.839 56.1318 128.113 55.0625 128.311 53.5464H127.059C126.839 54.4619 126.158 55.0112 125.118 55.0112C123.799 55.0112 122.891 53.9639 122.891 52.1914C122.891 50.4629 123.785 49.3716 125.103 49.3716C126.224 49.3716 126.868 50.0527 127.051 50.8804H128.296ZM131.995 55.0479C131.08 55.0479 130.472 54.5718 130.472 53.8467C130.472 53.1289 131.058 52.6748 132.083 52.6089L134.119 52.4844V53.1069C134.119 54.2056 133.196 55.0479 131.995 55.0479ZM131.709 56.1318C132.735 56.1318 133.702 55.5605 134.156 54.689H134.185V56H135.394V50.7339C135.394 49.2178 134.266 48.251 132.479 48.251C130.677 48.251 129.549 49.2617 129.461 50.5801H130.691C130.853 49.833 131.468 49.3716 132.449 49.3716C133.504 49.3716 134.119 49.9282 134.119 50.8584V51.4956L131.937 51.6201C130.179 51.7227 129.175 52.543 129.175 53.8467C129.175 55.2163 130.193 56.1318 131.709 56.1318ZM137.012 56H138.287V51.5176C138.287 50.2285 139.07 49.3789 140.271 49.3789C141.443 49.3789 142.022 50.0527 142.022 51.2832V56H143.296V51.0562C143.296 49.3276 142.33 48.251 140.66 48.251C139.48 48.251 138.667 48.7783 138.243 49.5986H138.213V48.3828H137.012V56ZM144.922 56H146.197V51.5176C146.197 50.2285 146.98 49.3789 148.182 49.3789C149.354 49.3789 149.932 50.0527 149.932 51.2832V56H151.207V51.0562C151.207 49.3276 150.24 48.251 148.57 48.251C147.391 48.251 146.578 48.7783 146.153 49.5986H146.124V48.3828H144.922V56ZM155.887 49.3569C157.088 49.3569 157.886 50.2651 157.916 51.5396H153.777C153.858 50.2725 154.693 49.3569 155.887 49.3569ZM157.886 53.8174C157.674 54.5352 156.963 55.0259 155.997 55.0259C154.627 55.0259 153.77 54.0664 153.77 52.6089V52.5356H159.234V52.0522C159.234 49.7451 157.967 48.251 155.909 48.251C153.807 48.251 152.459 49.855 152.459 52.2207C152.459 54.6157 153.785 56.1318 155.967 56.1318C157.63 56.1318 158.919 55.1504 159.139 53.8174H157.886ZM160.523 56H161.797V51.2539C161.797 50.1772 162.442 49.4668 163.431 49.4668C163.738 49.4668 164.009 49.5034 164.112 49.54V48.3022C164.009 48.2876 163.819 48.251 163.599 48.251C162.706 48.251 162.002 48.7856 161.753 49.6279H161.724V48.3828H160.523V56Z" fill="#6B92C6"/>
<g filter="url(#filter0_d_370_3939)">
<path d="M8 22.8624C8 14.6541 14.6541 8 22.8624 8H47.1376C55.3459 8 62 14.6541 62 22.8624V47.1376C62 55.3459 55.3459 62 47.1376 62H22.8624C14.6541 62 8 55.3459 8 47.1376V22.8624Z" fill="white"/>
</g>
<circle cx="34.9996" cy="34.9999" r="16.5963" fill="#196AD7" fill-opacity="0.3"/>
<circle cx="34.9995" cy="35" r="13.1284" fill="#2674DC" fill-opacity="0.5"/>
<circle cx="34.9994" cy="35.0001" r="9.66055" fill="#2671D6" fill-opacity="0.8"/>
<circle cx="34.9993" cy="35.0003" r="6.19266" fill="url(#paint0_radial_370_3939)"/>
<path d="M8 35.2476H62V35.2476C62 48.1072 51.5752 58.532 38.7156 58.532H31.2844C18.4248 58.532 8 48.1072 8 35.2476V35.2476Z" fill="url(#paint1_linear_370_3939)"/>
<rect x="38.4336" y="27.321" width="1.7555" height="6.14423" rx="0.877748" fill="white"/>
<rect x="36.2393" y="31.2708" width="1.75549" height="6.14423" rx="0.877747" transform="rotate(-90 36.2393 31.2708)" fill="white"/>
<path d="M49.7195 53.0824H51.5969C52.6913 53.0824 53.5785 52.1952 53.5785 51.1008V48.741H52.5877V51.1008C52.5877 51.648 52.1441 52.0916 51.5969 52.0916H49.7195V53.0824Z" fill="#0760D4"/>
<path d="M49.7195 17.4127H51.5969C52.1441 17.4127 52.5877 17.8563 52.5877 18.4035V19.7985H53.5785V18.4035C53.5785 17.3091 52.6913 16.4219 51.5969 16.4219H49.7195V17.4127Z" fill="#0760D4"/>
<path d="M20.777 16.4219V17.4127H18.8996C18.3524 17.4127 17.9088 17.8563 17.9088 18.4035V19.7985H16.918V18.4035C16.918 17.3091 17.8052 16.4219 18.8996 16.4219H20.777Z" fill="#0760D4"/>
<path d="M20.777 52.0916V53.0824H18.8996C17.8052 53.0824 16.918 52.1952 16.918 51.1008V48.741H17.9088V51.1008C17.9088 51.648 18.3524 52.0916 18.8996 52.0916H20.777Z" fill="#0760D4"/>
<defs>
<filter id="filter0_d_370_3939" x="0" y="0" width="74" height="74" filterUnits="userSpaceOnUse" color-interpolation-filters="sRGB">
<feFlood flood-opacity="0" result="BackgroundImageFix"/>
<feColorMatrix in="SourceAlpha" type="matrix" values="0 0 0 0 0 0 0 0 0 0 0 0 0 0 0 0 0 0 127 0" result="hardAlpha"/>
<feOffset dx="2" dy="2"/>
<feGaussianBlur stdDeviation="5"/>
<feColorMatrix type="matrix" values="0 0 0 0 0 0 0 0 0 0 0 0 0 0 0 0 0 0 0.1 0"/>
<feBlend mode="normal" in2="BackgroundImageFix" result="effect1_dropShadow_370_3939"/>
<feBlend mode="normal" in="SourceGraphic" in2="effect1_dropShadow_370_3939" result="shape"/>
</filter>
<radialGradient id="paint0_radial_370_3939" cx="0" cy="0" r="1" gradientUnits="userSpaceOnUse" gradientTransform="translate(34.9993 35.0003) rotate(90) scale(6.19266)">
<stop stop-color="#2364BB"/>
<stop offset="1" stop-color="#00429A"/>
</radialGradient>
<linearGradient id="paint1_linear_370_3939" x1="35" y1="32.2661" x2="35.4372" y2="52.9872" gradientUnits="userSpaceOnUse">
<stop stop-color="white"/>
<stop offset="0.614815" stop-color="white" stop-opacity="0"/>
</linearGradient>
</defs>
</svg>
